<?xml version="1.0" encoding="UTF-8"?>
<svg id="Layer_1" data-name="Layer 1" xmlns="http://www.w3.org/2000/svg" xmlns:xlink="http://www.w3.org/1999/xlink" viewBox="0 0 111.72 34.13">
  <defs>
    <style>
      .cls-1 {
        fill: url(#linear-gradient);
      }

      .cls-1, .cls-2, .cls-3 {
        stroke-width: 0px;
      }

      .cls-2 {
        fill: url(#linear-gradient-2);
      }

      .cls-3 {
        fill: #fff;
      }
    </style>
    <linearGradient id="linear-gradient" x1="52.25" y1="1062.17" x2="105.75" y2="1030.67" gradientTransform="translate(0 -1034.11)" gradientUnits="userSpaceOnUse">
      <stop offset="0" stop-color="#00b4d8"/>
      <stop offset="1" stop-color="#48cae4"/>
    </linearGradient>
    <linearGradient id="linear-gradient-2" x1="-2.64" y1="1070.3" x2="60.36" y2="1029.3" gradientTransform="translate(0 -1034.11)" gradientUnits="userSpaceOnUse">
      <stop offset="0" stop-color="#03045e"/>
      <stop offset="1" stop-color="#023e8a"/>
    </linearGradient>
  </defs>
  <path class="cls-1" d="M48.24,0l-15.5,34s55.2-.4,55.3-.4c6.3.1,14.5-1.6,19.1-13.2C111.84,8.8,116.14,0,102.64,0"/>
  <path class="cls-2" d="M44.74.1H15.64c-3.9,0-6.9,2.1-7.6,4.5C7.24,7,.64,27.7.24,28.9c-.4,1.2-1,5,4.7,5.2,5.6.1,34.7-.1,34.7-.1.7,0,1.3-.2,1.9-.5.6-.3,1.1-.7,1.5-1.3,1.7-1.9,16.1-23.2,13-27.7-.8-1.8-3.8-4.5-5.2-4.5s-6.1.1-6.1.1Z"/>
  <path class="cls-3" d="M7.44,26.7c1.3.4,3.1.7,5,.7,3.6,0,7-.9,9.6-2.9,3.4-2.7,5.5-7.6,4.9-11.8-.7-5.3-4.7-6.2-8.8-6.1-1.6,0-3.7.5-5.1,1-2.3,6.9-3.7,12.4-5.6,19.1ZM14.04,22.5c1.1-3.4,2-7.1,3.2-10.4.4-.1,1.1-.3,1.5-.2,1,.1,2.2.7,2.2,2.7,0,3.9-3,7.9-6.9,7.9ZM36.74,7.1c-2-.1-4.2-.1-6.2.3-2.3,7-3.8,13.2-5.3,19.9,1.8-.2,3.7-.2,5.5,0,1.9-6.9,3.7-13.2,6-20.2ZM44.44,7.3c-1.6-.1-4.2-.1-5.9.1-.5,5.5-.6,14-.5,19.9,2.4-.3,4.2-.2,6-.1,2.9-5.6,7-13.5,11.4-20.1-2.2-.1-4.2-.1-6.4.1-2.2,3.8-4.4,8-6.1,12,.2-3.4.8-8.4,1.5-11.9ZM51.64,27.2c4.7.9,11.7.6,14.7-3.4.3-.5.6-1.2.7-1.8.3-1.7-1.3-2.6-2.5-3.5-.9-.6-3.4-1.4-3.4-2.7,0-1.2.9-2.2,1.9-2.7,1.3-.6,4-.6,5.3-.3l1.5-5.7c-1.9-.2-3.6-.3-5.5-.1-3.3.3-7.6,1.5-9.2,4.5-.5.8-.9,2-.8,3.1.2,2.2,1.4,3.4,3.5,4.6,3.1,1.7,2.2,3.5-1,3.8-1.3.1-3.3-.1-4.6-.3l-.6,4.5ZM76.14,15.9c.3-1,.6-2.1,1-3.1,2-.2,5.3-.3,7.1-.2.7-1.8,1.5-3.8,2.2-5.6-3.8-.1-9.4-.1-13.3.5-2.3,6.9-3.7,13.2-5.3,19.9,2.6,0,7.5.1,11.2-.1.9-1.7,1.6-3.3,2.3-5-2.1.3-5.4.4-7.2.4.3-1,.6-1.9.9-2.9,1.6-.1,4.8-.1,6.5,0,.5-1.4.8-2.5,1.2-3.9-1.7-.2-4.7-.2-6.6,0ZM91.44,15.9c.3-1,.6-2.1,1-3.1,2-.2,5.3-.3,7.1-.2.7-1.8,1.5-3.8,2.2-5.6-3.8-.1-9.4-.1-13.3.5-2.3,6.9-3.7,13.2-5.3,19.9,2.6,0,7.5.1,11.2-.1.9-1.7,1.6-3.3,2.3-5-2.1.3-5.4.4-7.2.4.3-1,.6-1.9.9-2.9,1.6-.1,4.8-.1,6.5,0,.5-1.4.8-2.5,1.2-3.9-1.7-.2-4.7-.2-6.6,0Z"/>
</svg>